<svg width="57" height="131" viewBox="0 0 57 131" fill="none" xmlns="http://www.w3.org/2000/svg">
<path d="M54.5929 6.71058C34.7095 15.0421 32.634 37.4858 30.2337 61.2987C27.7628 85.8143 24.9468 111.781 1.99976 125.294" stroke="black" stroke-width="2" stroke-miterlimit="1.5" stroke-linecap="round" stroke-linejoin="round"/>
<path fill-rule="evenodd" clip-rule="evenodd" d="M51.601 10.7833C50.6287 9.16902 49.9958 7.26041 49.7416 5.40592C51.315 5.39383 52.8866 5.51275 54.4635 5.49318C54.6103 5.49131 55.8933 5.41346 55.9111 5.47318C56.0562 5.95971 55.5752 6.7492 55.3573 7.16188C54.6005 8.59538 53.0856 9.96178 52.0166 11.2235" fill="black"/>
<path d="M51.601 10.7833C50.6287 9.16902 49.9958 7.26041 49.7416 5.40592C51.315 5.39383 52.8866 5.51275 54.4635 5.49318C54.6103 5.49131 55.8933 5.41346 55.9111 5.47318C56.0562 5.95971 55.5752 6.7492 55.3573 7.16188C54.6005 8.59538 53.0856 9.96178 52.0166 11.2235" stroke="black" stroke-width="2" stroke-miterlimit="1.5" stroke-linecap="round" stroke-linejoin="round"/>
</svg>
