<svg width="60" height="58" viewBox="0 0 60 58" fill="none" xmlns="http://www.w3.org/2000/svg">
<path d="M48.2296 8.61471C41.6256 3.12767 30.6833 0.745427 23.5457 2.64612C8.22518 6.72593 -3.14424 26.5086 4.38409 39.9959C8.394 47.1794 17.6368 54.7389 26.5031 55.8311C40.0133 57.4959 54.1677 46.6211 56.6651 33.3611C58.259 24.8988 55.3266 17.195 50.5102 10.5652" stroke="#E52764" stroke-width="4" stroke-miterlimit="1.5" stroke-linecap="round" stroke-linejoin="round"/>
<path d="M10.7339 12.2097C14.1774 14.5464 16.7951 17.837 19.9001 20.5597C29.356 28.852 38.8282 37.9194 47.0984 47.4639" stroke="#E52764" stroke-width="4" stroke-miterlimit="1.5" stroke-linecap="round" stroke-linejoin="round"/>
<path d="M9.12402 44.8428C12.866 40.9315 17.4909 37.8965 21.7311 34.551C31.4832 26.8564 41.4876 19.6515 51.4631 12.3332" stroke="#E52764" stroke-width="4" stroke-miterlimit="1.5" stroke-linecap="round" stroke-linejoin="round"/>
</svg>
