<svg width="134" height="43" viewBox="0 0 134 43" fill="none" xmlns="http://www.w3.org/2000/svg">
<path d="M102.974 6.63363C81.9111 -1.61104 41.4104 -0.21641 20.621 6.99815C11.1531 10.284 -6.30539 19.8047 4.31812 28.7936C6.19186 30.3788 8.46948 31.6669 10.8261 32.7814C36.7601 45.0466 72.9312 43.7976 100.764 36.4585C104.915 35.364 109 34.0648 112.758 32.2988C115.569 30.978 118.286 29.3408 120.475 27.4303C126.882 21.8375 125.208 16.209 118.315 11.4673C110.322 5.96981 99.3922 4.26629 89.0797 3.33308C80.0618 2.51721 71.0549 2.36069 61.9943 2.69372C45.0018 3.31805 25.4194 4.31154 11.1676 11.8276C4.94291 15.1104 -1.7446 22.1256 3.59113 27.8033C9.37291 33.9558 23.0063 35.9477 32.1759 37.2461C56.9132 40.7484 96.0543 39.0118 118.587 29.8208C121.017 28.8297 123.478 27.9059 125.652 26.6026C127.369 25.5728 129.013 24.3986 130.44 23.1276C140.55 14.1214 117.991 8.45849 110.035 7.48611C85.0071 4.42697 47.964 0.0118999 24.9145 8.15025" stroke="#4A4A4A" stroke-width="2" stroke-miterlimit="1.5" stroke-linecap="round" stroke-linejoin="round"/>
<path d="M23.2231 34.4694C26.2704 34.598 29.5118 32.4697 32.1046 31.428C37.2631 29.3555 42.4435 27.3243 47.6589 25.3411C58.1042 21.3694 68.6525 17.4928 79.3853 14.0122C88.424 11.081 98.0776 8.82636 106.763 5.27815" stroke="#4A4A4A" stroke-width="2" stroke-miterlimit="1.5" stroke-linecap="round" stroke-linejoin="round"/>
<path d="M29.6194 7.63959C39.6999 10.6078 50.6385 11.765 60.9418 14.2442C81.1611 19.1095 100.909 24.98 120.491 31.1016" stroke="#4A4A4A" stroke-width="2" stroke-miterlimit="1.5" stroke-linecap="round" stroke-linejoin="round"/>
</svg>
