<svg width="51" height="19" viewBox="0 0 51 19" fill="none" xmlns="http://www.w3.org/2000/svg">
<path d="M7.5499 18.275C6.31657 18.275 5.19157 18.0083 4.1749 17.475C3.1749 16.925 2.3749 16.1667 1.7749 15.2C1.19157 14.2167 0.899902 13.0833 0.899902 11.8C0.899902 10.4833 1.1999 9.34166 1.7999 8.375C2.3999 7.40833 3.20824 6.65833 4.2249 6.125C5.25824 5.575 6.4249 5.3 7.7249 5.3C9.15824 5.3 10.3082 5.59166 11.1749 6.175C12.0582 6.74166 12.6999 7.51666 13.0999 8.5C13.4999 9.48333 13.6999 10.5833 13.6999 11.8C13.6999 12.5333 13.5832 13.2833 13.3499 14.05C13.1166 14.8 12.7582 15.5 12.2749 16.15C11.7916 16.7833 11.1582 17.3 10.3749 17.7C9.59157 18.0833 8.6499 18.275 7.5499 18.275ZM8.5999 15.775C9.58324 15.775 10.4332 15.6083 11.1499 15.275C11.8666 14.9417 12.4166 14.475 12.7999 13.875C13.1832 13.275 13.3749 12.5833 13.3749 11.8C13.3749 10.95 13.1749 10.2333 12.7749 9.65C12.3916 9.05 11.8416 8.6 11.1249 8.3C10.4249 7.98333 9.58324 7.825 8.5999 7.825C7.21657 7.825 6.14157 8.19166 5.3749 8.925C4.60824 9.64166 4.2249 10.6 4.2249 11.8C4.2249 12.6 4.40824 13.3 4.7749 13.9C5.14157 14.4833 5.6499 14.9417 6.2999 15.275C6.96657 15.6083 7.73324 15.775 8.5999 15.775ZM13.3749 5.575H16.6249V18H13.5999C13.5999 18 13.5749 17.8417 13.5249 17.525C13.4916 17.1917 13.4582 16.775 13.4249 16.275C13.3916 15.775 13.3749 15.2833 13.3749 14.8V5.575Z" fill="#F5F5F5"/>
<path d="M19.5663 5.575H22.8163V18H19.5663V5.575ZM27.5913 8.25C26.658 8.25 25.8496 8.43333 25.1663 8.8C24.483 9.15 23.933 9.58333 23.5163 10.1C23.0996 10.6167 22.808 11.1167 22.6413 11.6L22.6163 10.225C22.633 10.025 22.6996 9.73333 22.8163 9.35C22.933 8.95 23.108 8.525 23.3413 8.075C23.5746 7.60833 23.883 7.16666 24.2663 6.75C24.6496 6.31666 25.1163 5.96666 25.6663 5.7C26.2163 5.43333 26.858 5.3 27.5913 5.3V8.25Z" fill="#F5F5F5"/>
<path d="M40.9505 18V11.175C40.9505 10.4917 40.8338 9.925 40.6005 9.475C40.3672 9.025 39.9922 8.68333 39.4755 8.45C38.9755 8.21666 38.3005 8.1 37.4505 8.1C36.6338 8.1 35.8922 8.25833 35.2255 8.575C34.5588 8.875 34.0172 9.275 33.6005 9.775C33.1838 10.2583 32.9505 10.775 32.9005 11.325L32.8755 9.95C32.9588 9.4 33.1505 8.85 33.4505 8.3C33.7505 7.75 34.1505 7.25 34.6505 6.8C35.1505 6.35 35.7505 5.99166 36.4505 5.725C37.1672 5.44166 37.9672 5.3 38.8505 5.3C39.6172 5.3 40.3255 5.4 40.9755 5.6C41.6255 5.78333 42.1922 6.075 42.6755 6.475C43.1588 6.875 43.5338 7.375 43.8005 7.975C44.0672 8.55833 44.2005 9.25 44.2005 10.05V18H40.9505ZM29.8255 18V0.574997H33.0755V18H29.8255Z" fill="#F5F5F5"/>
<path d="M50.9292 15.15V18H47.1542V15.15H50.9292Z" fill="#F5F5F5"/>
</svg>
